<svg width="700" height="117" viewBox="0 0 700 117" fill="none" xmlns="http://www.w3.org/2000/svg">
<g clip-path="url(#clip0_4495_2993)">
<path d="M94.2288 105H126.098L110.145 71.968C117.373 68.793 123.615 64.559 128.324 58.938C132.997 53.355 138.763 46.643 140.406 38.869C141.611 32.847 141.649 27.442 140.444 22.661C139.24 17.88 136.974 13.796 133.579 10.438C130.184 7.044 125.841 4.49 120.438 2.701C115.072 0.913004 108.759 0.036 101.567 0H82.0378H54.1838H53.4928L53.4548 0.147995C52.9068 0.402995 52.4288 0.911998 52.3198 1.532L47.6137 24.961C45.1678 32.042 38.452 37.118 30.5304 37.118H13.9191C13.0795 37.118 12.2374 37.81 12.0549 38.65L0.23531 103.463C0.0528104 104.303 0.598811 105 1.47501 105H29.3289C30.1685 105 31.0058 104.303 31.1884 103.463L41.7015 45.145C43.3077 37.445 49.8016 31.573 57.7598 30.88H66.7758H75.7538H75.7918H76.9268H89.4088C94.0818 30.916 97.3708 31.933 99.2688 33.977C101.167 36.021 101.752 38.869 100.985 42.592C100.255 46.241 95.8708 49.123 93.1328 51.13C90.3948 53.138 86.6718 54.194 81.9998 54.194H71.9198H71.1958C70.3558 54.194 69.5188 54.892 69.3358 55.731L69.2268 56.242L66.7758 67.992L65.5358 72.517C65.3538 73.356 65.8998 74.049 66.7758 74.049H71.4868H79.4058L80.8318 77.003L94.2288 105Z" fill="#FF6F32"/>
<path d="M21.3032 5.55499H44.0981C45.0588 5.55499 45.7713 6.446 45.5598 7.383L43.0975 18.292C43.0975 18.292 42.4309 22.019 40.3703 24.813C38.3096 27.608 35.116 29.175 33.2661 29.344C31.7992 29.477 21.1605 29.399 16.8189 29.361C15.8708 29.353 15.1677 28.476 15.3669 27.549L19.8382 6.739C19.9865 6.048 20.5969 5.55499 21.3032 5.55499Z" fill="#3AB076"/>
<path d="M200.141 28.913C206.808 28.913 212.076 30.627 215.944 34.055C219.812 37.483 221.746 42.3106 221.746 48.538C221.746 53.6953 220.41 57.9093 217.736 61.18C215.063 64.4506 211.305 66.5577 206.462 67.501C210.11 71.5263 213.349 75.709 216.179 80.049C219.01 84.389 221.715 89.358 224.293 94.956H209.953C206.997 88.9806 204.26 84.043 201.744 80.143C199.229 76.2437 195.958 72.2496 191.932 68.161H185.139V94.956H169.572V28.913H200.141ZM199.008 57.312C202.216 57.312 204.701 56.4627 206.462 54.764C208.223 53.066 209.103 50.9906 209.103 48.538C209.103 46.022 208.207 43.9303 206.415 42.263C204.623 40.5963 202.154 39.763 199.008 39.763H185.139V57.312H199.008ZM252.597 96.182C247.817 96.182 243.65 95.05 240.096 92.786C236.543 90.5213 233.807 87.408 231.888 83.446C229.97 79.4833 229.01 74.8603 229.01 69.577C229.01 64.3563 229.97 59.7176 231.888 55.661C233.807 51.6036 236.512 48.443 240.002 46.179C243.493 43.9143 247.566 42.782 252.22 42.782C254.358 42.782 256.512 43.1753 258.682 43.962C260.852 44.748 262.881 45.833 264.768 47.217V44.009H279.863V83.068C279.863 88.1626 280.492 92.1253 281.75 94.956H267.598C267.158 94.0753 266.781 92.943 266.466 91.559C262.566 94.641 257.943 96.182 252.597 96.182ZM243.445 69.577C243.445 72.4703 244.027 75.112 245.191 77.502C246.355 79.892 247.896 81.7947 249.814 83.21C251.732 84.6253 253.761 85.333 255.899 85.333C257.409 85.333 259.107 85.0026 260.994 84.342C262.881 83.6813 264.516 82.2503 265.9 80.049V58.916C264.516 56.714 262.897 55.2986 261.041 54.67C259.186 54.0413 257.472 53.727 255.899 53.727C253.761 53.727 251.732 54.4187 249.814 55.802C247.896 57.186 246.355 59.0886 245.191 61.51C244.027 63.9313 243.445 66.6203 243.445 69.577ZM287.411 116.467C288.166 114.328 288.669 111.341 288.92 107.504C289.172 103.667 289.298 100.176 289.298 97.031V44.009H304.393V48.726C306.469 46.8393 308.749 45.377 311.233 44.339C313.718 43.301 316.218 42.782 318.734 42.782C323.388 42.782 327.461 43.9143 330.951 46.179C334.443 48.443 337.147 51.6036 339.065 55.661C340.984 59.7176 341.943 64.3563 341.943 69.577C341.943 74.797 341 79.404 339.112 83.398C337.226 87.392 334.521 90.5213 330.999 92.786C327.477 95.05 323.388 96.182 318.734 96.182C313.073 96.182 308.293 94.5467 304.393 91.276V97.031C304.393 100.365 304.22 103.935 303.874 107.74C303.528 111.545 303.072 114.454 302.506 116.467H287.411ZM304.393 79.011C305.714 81.5903 307.397 83.2887 309.441 84.106C311.485 84.924 313.356 85.333 315.054 85.333C317.193 85.333 319.221 84.6253 321.139 83.21C323.058 81.7947 324.599 79.892 325.762 77.502C326.926 75.112 327.508 72.4703 327.508 69.577C327.508 66.6203 326.926 63.9313 325.762 61.51C324.599 59.0886 323.058 57.186 321.139 55.802C319.221 54.4187 317.193 53.727 315.054 53.727C313.356 53.727 311.485 54.1357 309.441 54.953C307.397 55.771 305.714 57.4693 304.393 60.048V79.011ZM365.341 44.009V94.956H350.245V44.009H365.341ZM350.245 22.404H365.341V37.499H350.245V22.404ZM397.324 96.182C392.67 96.182 388.581 95.0656 385.059 92.833C381.537 90.6003 378.833 87.4713 376.945 83.446C375.059 79.42 374.115 74.8283 374.115 69.671C374.115 64.4503 375.074 59.8117 376.992 55.755C378.911 51.6983 381.616 48.5376 385.106 46.273C388.597 44.009 392.67 42.877 397.324 42.877C399.463 42.877 401.617 43.2543 403.787 44.009C405.957 44.7637 407.986 45.8643 409.872 47.311V22.404H424.967V83.163C424.967 88.1943 425.596 92.1253 426.854 94.956H412.702C412.262 94.0753 411.885 92.943 411.57 91.559C407.608 94.641 402.859 96.182 397.324 96.182ZM388.55 69.671C388.55 72.5643 389.132 75.206 390.295 77.596C391.459 79.986 393 81.8887 394.918 83.304C396.837 84.7193 398.865 85.427 401.003 85.427C402.702 85.427 404.573 85.018 406.617 84.2C408.661 83.3826 410.344 81.6847 411.665 79.106V60.142C410.344 57.5006 408.661 55.771 406.617 54.953C404.573 54.1357 402.702 53.727 401.003 53.727C398.865 53.727 396.837 54.4187 394.918 55.802C393 57.186 391.459 59.1043 390.295 61.557C389.132 64.0103 388.55 66.715 388.55 69.671ZM432.515 116.467C433.27 114.328 433.773 111.341 434.025 107.504C434.277 103.667 434.402 100.176 434.402 97.031V44.009H449.497V48.726C451.573 46.8393 453.853 45.377 456.337 44.339C458.822 43.301 461.322 42.782 463.838 42.782C468.493 42.782 472.566 43.9143 476.056 46.179C479.547 48.443 482.252 51.6036 484.17 55.661C486.088 59.7176 487.047 64.3563 487.047 69.577C487.047 74.797 486.104 79.404 484.217 83.398C482.33 87.392 479.625 90.5213 476.103 92.786C472.581 95.05 468.493 96.182 463.838 96.182C458.178 96.182 453.397 94.5467 449.497 91.276V97.031C449.497 100.365 449.324 103.935 448.978 107.74C448.633 111.545 448.177 114.454 447.61 116.467H432.515ZM449.497 79.011C450.819 81.5903 452.501 83.2887 454.545 84.106C456.589 84.924 458.46 85.333 460.158 85.333C462.297 85.333 464.326 84.6253 466.244 83.21C468.162 81.7947 469.703 79.892 470.867 77.502C472.031 75.112 472.612 72.4703 472.612 69.577C472.612 66.6203 472.031 63.9313 470.867 61.51C469.703 59.0886 468.162 57.186 466.244 55.802C464.326 54.4187 462.297 53.727 460.158 53.727C458.46 53.727 456.589 54.1357 454.545 54.953C452.501 55.771 450.819 57.4693 449.497 60.048V79.011ZM509.219 44.009V49.481C510.855 47.7197 512.82 46.3517 515.115 45.377C517.411 44.4023 519.691 43.915 521.955 43.915C523.528 43.915 525.006 44.135 526.389 44.575V56.18C524.629 55.7393 522.962 55.519 521.389 55.519C518.999 55.519 516.735 55.912 514.596 56.698C512.458 57.4846 510.665 58.727 509.219 60.425V94.956H494.123V44.009H509.219ZM557.524 96.182C552.178 96.182 547.476 95.0813 543.419 92.88C539.363 90.6787 536.233 87.5496 534.031 83.493C531.83 79.4356 530.729 74.6396 530.729 69.105C530.729 60.6136 533.12 54.1036 537.9 49.575C542.68 45.0463 549.222 42.782 557.524 42.782C565.764 42.782 572.273 45.0463 577.053 49.575C581.834 54.1036 584.224 60.6136 584.224 69.105C584.224 74.6396 583.124 79.4356 580.922 83.493C578.72 87.5496 575.607 90.6787 571.581 92.88C567.556 95.0813 562.87 96.182 557.524 96.182ZM545.636 69.105C545.636 73.9483 546.737 77.848 548.938 80.804C551.14 83.76 554.002 85.238 557.524 85.238C561.046 85.238 563.892 83.76 566.062 80.804C568.232 77.848 569.317 73.9483 569.317 69.105C569.317 64.073 568.264 60.252 566.156 57.642C564.05 55.032 561.172 53.727 557.524 53.727C553.876 53.727 550.983 55.032 548.844 57.642C546.706 60.252 545.636 64.073 545.636 69.105ZM615.83 78.728H615.452L604.791 94.956H589.318L607.15 69.671L588.941 44.009H604.225L615.452 60.708H615.83L627.057 44.009H642.341L624.132 69.671L641.964 94.956H626.491L615.83 78.728ZM682.91 96.182C680.834 102.787 677.218 107.724 672.06 110.995C666.902 114.391 659.26 116.215 649.134 116.467V104.296C653.411 104.296 657.122 103.824 660.267 102.881C663.161 101.938 665.268 100.68 666.588 99.107C667.972 97.5343 669.009 95.4903 669.701 92.975L670.928 88.635H662.625L644.228 44.009H659.606L673.381 79.766L683.381 44.009H699.043L682.91 96.182Z" fill="#FF6F32"/>
</g>
<defs>
<clipPath id="clip0_4495_2993">
<rect width="700" height="117" fill="white"/>
</clipPath>
</defs>
</svg>
