<svg xmlns="http://www.w3.org/2000/svg" xmlns:xlink="http://www.w3.org/1999/xlink" width="800" height="400" viewBox="0 0 800 400" fill="none">
<path d="M144.229 253L176.098 253L160.145 219.968C167.373 216.793 173.615 212.559 178.324 206.938C182.997 201.355 188.763 194.643 190.406 186.869C191.611 180.847 191.649 175.442 190.444 170.661C189.24 165.88 186.974 161.796 183.579 158.438C180.184 155.044 175.841 152.49 170.438 150.701C165.072 148.913 158.759 148.036 151.567 148L132.038 148L104.184 148L103.493 148L103.455 148.148C102.907 148.403 102.429 148.912 102.32 149.532L97.6139 172.961C95.168 180.042 88.4522 185.118 80.5306 185.118L63.9193 185.118C63.0797 185.118 62.2376 185.81 62.0551 186.65L50.2355 251.463C50.053 252.303 50.599 253 51.4752 253L79.3291 253C80.1687 253 81.006 252.303 81.1886 251.463L91.7017 193.145C93.3079 185.445 99.8018 179.573 107.76 178.88L116.776 178.88L125.754 178.88L125.792 178.88L126.927 178.88L139.409 178.88C144.082 178.916 147.371 179.933 149.269 181.977C151.167 184.021 151.752 186.869 150.985 190.592C150.255 194.241 145.871 197.123 143.133 199.13C140.395 201.138 136.672 202.194 132 202.194L121.92 202.194L121.196 202.194C120.356 202.194 119.519 202.892 119.336 203.731L119.227 204.242L116.776 215.992L115.536 220.517C115.354 221.356 115.9 222.049 116.776 222.049L121.487 222.049L129.406 222.049L130.832 225.003L144.229 253Z"   fill="#FF6F32" >
</path>
<path     fill="#3AB076"  d="M71.3033 153.555L94.0982 153.555C95.0589 153.555 95.7714 154.446 95.5599 155.383L93.0976 166.292C93.0976 166.292 92.431 170.019 90.3704 172.813C88.3097 175.608 85.1161 177.175 83.2662 177.344C81.7993 177.477 71.1606 177.399 66.819 177.361C65.8709 177.353 65.1678 176.476 65.367 175.549L69.8383 154.739C69.9866 154.048 70.597 153.555 71.3033 153.555Z">
</path>
<g >
<path     fill="#FF6F32"  d="M250.141 176.913Q260.141 176.913 265.944 182.055Q271.746 187.197 271.746 196.538Q271.746 204.274 267.736 209.18Q263.726 214.086 256.462 215.501Q261.934 221.539 266.179 228.049Q270.425 234.559 274.293 242.956L259.953 242.956Q255.518 233.993 251.744 228.143Q247.971 222.294 241.932 216.161L235.139 216.161L235.139 242.956L219.572 242.956L219.572 176.913L250.141 176.913ZM249.008 205.312Q253.82 205.312 256.462 202.764Q259.103 200.217 259.103 196.538Q259.103 192.764 256.415 190.263Q253.726 187.763 249.008 187.763L235.139 187.763L235.139 205.312L249.008 205.312ZM302.597 244.182Q295.427 244.182 290.096 240.786Q284.766 237.389 281.888 231.446Q279.01 225.502 279.01 217.577Q279.01 209.746 281.888 203.661Q284.766 197.575 290.002 194.179Q295.238 190.782 302.22 190.782Q305.427 190.782 308.682 191.962Q311.937 193.141 314.768 195.217L314.768 192.009L329.863 192.009L329.863 231.068Q329.863 238.71 331.75 242.956L317.598 242.956Q316.938 241.635 316.466 239.559Q310.616 244.182 302.597 244.182ZM293.445 217.577Q293.445 221.917 295.191 225.502Q296.936 229.087 299.814 231.21Q302.691 233.333 305.899 233.333Q308.163 233.333 310.994 232.342Q313.824 231.351 315.9 228.049L315.9 206.916Q313.824 203.613 311.041 202.67Q308.258 201.727 305.899 201.727Q302.691 201.727 299.814 203.802Q296.936 205.878 295.191 209.51Q293.445 213.142 293.445 217.577ZM337.411 264.467Q338.543 261.259 338.92 255.504Q339.298 249.749 339.298 245.031L339.298 192.009L354.393 192.009L354.393 196.726Q357.506 193.896 361.233 192.339Q364.96 190.782 368.734 190.782Q375.715 190.782 380.951 194.179Q386.188 197.575 389.065 203.661Q391.943 209.746 391.943 217.577Q391.943 225.407 389.112 231.398Q386.282 237.389 380.999 240.786Q375.715 244.182 368.734 244.182Q360.242 244.182 354.393 239.276L354.393 245.031Q354.393 250.032 353.874 255.74Q353.355 261.448 352.506 264.467L337.411 264.467ZM354.393 227.011Q356.374 230.88 359.441 232.106Q362.507 233.333 365.054 233.333Q368.262 233.333 371.139 231.21Q374.017 229.087 375.762 225.502Q377.508 221.917 377.508 217.577Q377.508 213.142 375.762 209.51Q374.017 205.878 371.139 203.802Q368.262 201.727 365.054 201.727Q362.507 201.727 359.441 202.953Q356.374 204.18 354.393 208.048L354.393 227.011ZM415.341 192.009L415.341 242.956L400.245 242.956L400.245 192.009L415.341 192.009ZM400.245 170.404L415.341 170.404L415.341 185.499L400.245 185.499L400.245 170.404ZM447.324 244.182Q440.342 244.182 435.059 240.833Q429.776 237.484 426.945 231.446Q424.115 225.407 424.115 217.671Q424.115 209.84 426.992 203.755Q429.87 197.67 435.106 194.273Q440.342 190.877 447.324 190.877Q450.532 190.877 453.787 192.009Q457.042 193.141 459.872 195.311L459.872 170.404L474.967 170.404L474.967 231.163Q474.967 238.71 476.854 242.956L462.702 242.956Q462.042 241.635 461.57 239.559Q455.626 244.182 447.324 244.182ZM438.55 217.671Q438.55 222.011 440.295 225.596Q442.041 229.181 444.918 231.304Q447.796 233.427 451.003 233.427Q453.551 233.427 456.617 232.2Q459.683 230.974 461.665 227.106L461.665 208.142Q459.683 204.18 456.617 202.953Q453.551 201.727 451.003 201.727Q447.796 201.727 444.918 203.802Q442.041 205.878 440.295 209.557Q438.55 213.237 438.55 217.671ZM482.515 264.467Q483.647 261.259 484.025 255.504Q484.402 249.749 484.402 245.031L484.402 192.009L499.497 192.009L499.497 196.726Q502.611 193.896 506.337 192.339Q510.064 190.782 513.838 190.782Q520.82 190.782 526.056 194.179Q531.292 197.575 534.17 203.661Q537.047 209.746 537.047 217.577Q537.047 225.407 534.217 231.398Q531.386 237.389 526.103 240.786Q520.82 244.182 513.838 244.182Q505.347 244.182 499.497 239.276L499.497 245.031Q499.497 250.032 498.978 255.74Q498.46 261.448 497.61 264.467L482.515 264.467ZM499.497 227.011Q501.479 230.88 504.545 232.106Q507.611 233.333 510.158 233.333Q513.366 233.333 516.244 231.21Q519.121 229.087 520.867 225.502Q522.612 221.917 522.612 217.577Q522.612 213.142 520.867 209.51Q519.121 205.878 516.244 203.802Q513.366 201.727 510.158 201.727Q507.611 201.727 504.545 202.953Q501.479 204.18 499.497 208.048L499.497 227.011ZM559.219 192.009L559.219 197.481Q561.672 194.839 565.115 193.377Q568.559 191.915 571.955 191.915Q574.314 191.915 576.389 192.575L576.389 204.18Q573.748 203.519 571.389 203.519Q567.804 203.519 564.596 204.698Q561.388 205.878 559.219 208.425L559.219 242.956L544.123 242.956L544.123 192.009L559.219 192.009ZM607.524 244.182Q599.504 244.182 593.419 240.88Q587.334 237.578 584.031 231.493Q580.729 225.407 580.729 217.105Q580.729 204.368 587.9 197.575Q595.07 190.782 607.524 190.782Q619.883 190.782 627.053 197.575Q634.224 204.368 634.224 217.105Q634.224 225.407 630.922 231.493Q627.619 237.578 621.581 240.88Q615.543 244.182 607.524 244.182ZM595.636 217.105Q595.636 224.37 598.938 228.804Q602.24 233.238 607.524 233.238Q612.807 233.238 616.062 228.804Q619.317 224.37 619.317 217.105Q619.317 209.557 616.156 205.642Q612.996 201.727 607.524 201.727Q602.052 201.727 598.844 205.642Q595.636 209.557 595.636 217.105ZM665.83 226.728L665.452 226.728L654.791 242.956L639.318 242.956L657.15 217.671L638.941 192.009L654.225 192.009L665.452 208.708L665.83 208.708L677.057 192.009L692.341 192.009L674.132 217.671L691.964 242.956L676.491 242.956L665.83 226.728ZM732.91 244.182Q729.796 254.089 722.06 258.995Q714.323 264.089 699.134 264.467L699.134 252.296Q705.549 252.296 710.267 250.881Q714.607 249.466 716.588 247.107Q718.663 244.748 719.701 240.975L720.928 236.635L712.625 236.635L694.228 192.009L709.606 192.009L723.381 227.766L733.381 192.009L749.043 192.009L732.91 244.182Z">
</path>
</g>
</svg>
