<svg width="1450" height="589" viewBox="0 0 1450 589" fill="none" xmlns="http://www.w3.org/2000/svg">
<g clip-path="url(#clip0_4492_2997)">
<path d="M640.723 589H565.816V565.284C541.783 580.285 513.406 589 482.987 589C396.479 588.996 326.356 518.875 326.356 432.392V432.17C326.363 345.693 396.483 275.589 482.987 275.584C513.404 275.584 541.785 284.281 565.816 299.278V275.584H640.723V589ZM1449.91 375.515H1399.98C1369.89 375.515 1345.49 399.9 1345.49 429.982V589H1245.61V402.681C1245.61 332.491 1302.53 275.584 1372.75 275.584H1449.91V375.515ZM361.245 215.035H230.145V588.536H130.26V215.035H61.2361V115.106H361.245V215.035ZM821.8 588.006H721.915V115.615H821.8V588.006ZM1038.56 273.462C1125.06 273.466 1195.19 343.571 1195.19 430.047V430.269C1195.19 516.75 1125.06 586.871 1038.56 586.875C952.048 586.875 881.907 516.755 881.907 430.269V430.047C881.912 343.566 952.051 273.462 1038.56 273.462ZM482.987 364.1C445.379 364.102 414.898 394.576 414.894 432.17V432.392C414.894 469.993 445.377 500.483 482.987 500.487C520.601 500.487 551.102 469.995 551.102 432.392V432.17C551.098 394.574 520.597 364.1 482.987 364.1ZM1038.56 361.975C1000.95 361.975 970.448 392.449 970.443 430.047V430.269C970.443 467.87 1000.95 498.362 1038.56 498.362C1076.17 498.358 1106.65 467.868 1106.65 430.269V430.047C1106.65 392.453 1076.16 361.982 1038.56 361.975ZM31.2818 215.035H0V115.106H31.2818V215.035Z" fill="white"/>
<path d="M1448.74 0H881.909V223.601H1448.74V0Z" fill="#16C27C"/>
<path d="M1282.13 71.2798H1246.05V177.802H1217.62V71.2798H1181.54V45.8164H1282.13V71.2798ZM967.081 45.8164C989.768 45.8169 1007.19 51.5682 1019.33 63.0723C1031.48 74.5761 1037.56 90.5729 1037.56 111.057C1037.56 131.607 1031.64 147.857 1019.82 159.794C1008 171.73 989.907 177.713 965.554 177.713H922.081V142.449H950.509V151.674H968.497C981.504 151.674 991.515 148.275 998.495 141.476C1005.47 134.677 1008.96 124.787 1008.96 111.809C1008.96 98.8887 1005.47 88.9267 998.495 81.9432C991.515 74.9608 980.802 71.4803 966.372 71.4789H950.509V118.822H922.081V45.8164H967.081ZM1181.78 177.514H1151.47L1136.94 142.449H1089.04L1074.4 177.514H1044.2L1099.62 45.8164H1127.87L1181.78 177.514ZM1412.75 177.514H1382.44L1367.9 142.449H1320.01L1305.36 177.514H1275.16L1330.58 45.8164H1358.83L1412.75 177.514ZM1329.85 118.822H1358.1L1344.03 84.8633L1329.85 118.822ZM1098.89 118.822H1127.14L1113.07 84.8633L1098.89 118.822Z" fill="white"/>
</g>
<defs>
<clipPath id="clip0_4492_2997">
<rect width="1449.85" height="589" fill="white"/>
</clipPath>
</defs>
</svg>
